<svg data-v-423bf9ae="" xmlns="http://www.w3.org/2000/svg" viewBox="0 0 160.25438390743568 60" class="font"><!----><!----><!----><g data-v-423bf9ae="" id="b860a740-cff7-48d0-901e-c17ce444f5b0" fill="white" transform="matrix(4.769475386636096,0,0,4.769475386636096,-0.6677263561630014,-20.127185607765725)"><path d="M6.47 12.29L6.92 13.52L9.90 13.52L5.66 4.22L4.38 4.22L0.14 13.52L3.12 13.52L3.57 12.29ZM5.70 10.24L4.32 10.24L5.02 8.35ZM15.42 6.34C14.42 6.34 13.69 6.95 13.34 7.71L13.34 6.55L10.99 6.55L10.99 16.80L13.34 16.80L13.34 12.88C13.79 13.37 14.56 13.73 15.29 13.73C16.98 13.73 18.43 12.40 18.43 10.05C18.43 7.52 16.98 6.34 15.42 6.34ZM14.72 8.72C15.48 8.72 15.97 9.30 15.97 10.05C15.97 10.79 15.48 11.43 14.79 11.43C14.27 11.43 13.75 11.18 13.34 10.86L13.34 10.19C13.34 9.17 14.14 8.72 14.72 8.72ZM24.29 6.34C23.30 6.34 22.56 6.95 22.22 7.71L22.22 6.55L19.87 6.55L19.87 16.80L22.22 16.80L22.22 12.88C22.67 13.37 23.43 13.73 24.16 13.73C25.85 13.73 27.30 12.40 27.30 10.05C27.30 7.52 25.85 6.34 24.29 6.34ZM23.60 8.72C24.35 8.72 24.84 9.30 24.84 10.05C24.84 10.79 24.35 11.43 23.67 11.43C23.15 11.43 22.63 11.18 22.22 10.86L22.22 10.19C22.22 9.17 23.01 8.72 23.60 8.72ZM31.17 6.34C29.52 6.34 28.26 7.25 28.26 8.68C28.26 9.65 28.71 10.32 29.74 10.64L30.43 10.86C30.98 11.03 31.28 11.13 31.28 11.39C31.28 11.72 31.04 11.83 30.52 11.83C29.86 11.83 28.94 11.53 28.29 11.12L28.29 12.95C28.92 13.38 29.85 13.73 30.88 13.73C32.38 13.73 33.74 12.77 33.74 11.40C33.74 10.40 33.15 9.76 31.92 9.45L31.50 9.34C30.91 9.19 30.76 9.11 30.76 8.85C30.76 8.48 31.16 8.31 31.60 8.31C32.28 8.31 32.89 8.64 33.37 8.93L33.37 7.08C32.89 6.63 32.07 6.34 31.17 6.34Z"></path></g><!----><!----></svg>